<svg width="108" height="108" viewBox="0 0 108 108" fill="none" xmlns="http://www.w3.org/2000/svg">
<path d="M54.0001 53.9993C46.6667 53.9993 40.389 51.3882 35.1667 46.166C29.9445 40.9438 27.3334 34.666 27.3334 27.3327C27.3334 19.9993 29.9445 13.7216 35.1667 8.49935C40.389 3.27713 46.6667 0.666016 54.0001 0.666016C61.3334 0.666016 67.6112 3.27713 72.8334 8.49935C78.0556 13.7216 80.6667 19.9993 80.6667 27.3327C80.6667 34.666 78.0556 40.9438 72.8334 46.166C67.6112 51.3882 61.3334 53.9993 54.0001 53.9993ZM0.666748 107.333V88.666C0.666748 84.8882 1.64008 81.4171 3.58675 78.2527C5.53342 75.0882 8.11564 72.6705 11.3334 70.9994C18.2223 67.5549 25.2223 64.9727 32.3334 63.2527C39.4445 61.5327 46.6667 60.6705 54.0001 60.666C61.3334 60.6616 68.5556 61.5238 75.6667 63.2527C82.7779 64.9816 89.7779 67.5638 96.6667 70.9994C99.889 72.666 102.473 75.0838 104.42 78.2527C106.367 81.4216 107.338 84.8927 107.333 88.666V107.333H0.666748Z" fill="black"/>
</svg>
